<svg xmlns="http://www.w3.org/2000/svg" viewBox="0 0 131 131" enable-background="new 0 0 131 131"><path stroke="#000" stroke-width=".864" stroke-miterlimit="10" d="M129 107.9c0 11.1-9 20.2-20.2 20.2H23.1C12 128 3 119 3 107.9V22.2C3 11 12 2 23.1 2h85.7C120 2 129 11 129 22.2v85.7z"/><path fill="#636466" d="M95.8 42.9l-7.6-.2.4-7.5c.1-11-11.5-10.5-11.5-10.5l-21.7-.4c-11.7-.2-11.7 9-11.7 9l.1 8.4-11-.2c-10.5.2-9.7 9.4-9.7 9.4l83.8-1.2c-2.2-7.2-11.1-6.8-11.1-6.8zm-15.1-4.2l-.3 3.9L51 42l-.1-5s-.3-3.9 4-4l20.5-.5s5.7.9 5.3 6.2zM23.9 74.4l.2 6.6 11.2 1.3.9 5.8 7.2.3.4 2.3-6.4.8 1.1 7.8 66.2 2.9 1.7-29z"/><path fill="#E6AC4A" d="M107.4 54.8c.1-2-.1-3.6-.5-5L23.1 51l.7 23.4 82.5-1.2 1.1-18.4z"/><g fill="#636466"><path d="M34.8 71.6h-1.3l-.2-13.4-1.2 13.4h-1l-1.9-13.3.2 13.3h-1.3l-.3-17.5h1.6l2.1 14.3L33 54.1h1.5l.3 17.5zM39.8 71.5h-1.3L38.2 54h1.3l.3 17.5zM48.3 71.4H47l-2.4-12.8.2 12.8h-1.3L43.2 54h1.4L47 66.4 46.8 54H48l.3 17.4zM53.6 53.8h.1c1.4 0 2.1.7 2.1 2.4v.1l.2 12.1v.1c0 2.1-.7 2.8-2.7 2.8H51.9l-.3-17.5h2zM53.3 70h.5c.8 0 1-.3 1-1.4v-.1l-.2-12.3v-.1c0-.8-.3-1.1-1-1.1H53l.3 15zM64 71.1h-1.3l-.1-8.3h-1.5l.1 8.3h-1.4l-.3-17.5h1.3l.1 7.8h1.5l-.1-7.8h1.4l.3 17.5zM72.6 71h-1.4l-.6-5.2h-1.4l-.3 5.2h-1.4l1.2-17.5h1.6L72.6 71zm-3.4-6.6h1.1l-.7-7.4-.4 7.4zM80.9 70.8h-1.3L77.2 58l.2 12.8h-1.3l-.3-17.5h1.4l2.3 12.4-.2-12.5h1.2l.4 17.6zM86.2 53.2h.1c1.4 0 2.1.7 2.1 2.4v.1l.2 12.1v.1c0 2.1-.7 2.8-2.7 2.8H84.5l-.3-17.5h2zm-.3 16.2h.5c.8 0 1-.3 1-1.4v-.1l-.2-12.3v-.1c0-.8-.3-1.1-1-1.1H85.6l.3 15zM93.5 53.1l.3 16.2h2v1.3l-3.4.1-.3-17.5 1.4-.1zM102 53v1.3h-1.8l.1 6.6h1.8v1.2h-1.8l.1 7.1h1.8v1.3l-3.2.1-.1-17.6h3.1z"/></g></svg>