<svg xmlns="http://www.w3.org/2000/svg" xmlns:xlink="http://www.w3.org/1999/xlink" viewBox="0 0 131 131" enable-background="new 0 0 131 131"><path fill="#45555F" d="M65.7 5.8c33.5 0 60.6 27.1 60.6 60.6 0 33.4-27.1 60.6-60.6 60.6-33.4 0-60.5-27.1-60.5-60.6S32.3 5.8 65.7 5.8z"/><path fill="#fff" d="M65.7 129.2C31.1 129.2 3 101 3 66.4 3 31.8 31.1 3.6 65.7 3.6s62.8 28.2 62.8 62.8c0 34.6-28.1 62.8-62.8 62.8zM65.7 8C33.6 8 7.4 34.2 7.4 66.4s26.2 58.4 58.4 58.4 58.4-26.2 58.4-58.4S97.9 8 65.7 8z"/><path fill="#005696" d="M111.1 66.4c0 25-20.3 45.3-45.3 45.3-25 0-45.3-20.3-45.3-45.3C20.5 41.3 40.8 21 65.8 21c25 .1 45.3 20.4 45.3 45.4z"/><path fill="#fff" d="M65.8 113.9c-26.2 0-47.5-21.3-47.5-47.5s21.3-47.6 47.5-47.6 47.5 21.3 47.5 47.6c0 26.2-21.3 47.5-47.5 47.5zm0-90.6c-23.8 0-43.1 19.4-43.1 43.2 0 23.8 19.4 43.1 43.1 43.1 23.8 0 43.1-19.3 43.1-43.1 0-23.9-19.4-43.2-43.1-43.2z"/><path fill="#45555F" d="M114.8 110.3c1.4 0 2.6 1.2 2.6 2.6 0 1.5-1.1 2.7-2.6 2.7-1.4 0-2.6-1.2-2.6-2.7-.1-1.4 1.1-2.6 2.6-2.6zm0 .4c-1.2 0-2.1 1-2.1 2.2 0 1.3 1 2.2 2.1 2.2 1.2 0 2.1-1 2.1-2.2 0-1.2-1-2.2-2.1-2.2zm-.5 3.8h-.5v-3c.2 0 .5-.1.8-.1.4 0 .7.1.9.2.2.1.3.3.3.6 0 .4-.3.6-.6.7.3 0 .4.3.5.7.1.5.1.6.2.7h-.5c-.1-.1-.1-.4-.2-.8s-.3-.5-.6-.5h-.3v1.5zm0-1.6h.3c.4 0 .7-.1.7-.5 0-.3-.2-.5-.7-.5h-.3v1z"/><defs><path id="a" d="M65.7 5.8c33.5 0 60.6 27.1 60.6 60.6 0 33.4-27.1 60.6-60.6 60.6-33.4 0-60.5-27.1-60.5-60.6S32.3 5.8 65.7 5.8z"/></defs><clipPath id="b"><use xlink:href="#a" overflow="visible"/></clipPath><g clip-path="url(#b)"><path fill="#fff" d="M71.2 62.9C71.2 49.1 60 38 46.3 38H2.4c-.4.4-.5 1.4-.5 2.1 0 1.2.3 2.5.5 2.8l.1.1h43.8c11 0 20 9 20 20 0 7.4-4.1 14.2-10.7 17.7-2 1.1-4.2 1.8-6.5 2.1l-.7.1 70.3 31.1.2.1 1.9-4.4.1-.2-59.8-26.6c6.4-4.7 10.1-12.1 10.1-20zM78.5 79.3c3.3-5.2 5-11.2 5-17.3 0-17.8-14.4-32.4-32.2-32.6h-64.2v5h63.7c15.3 0 27.7 12.4 27.7 27.7 0 5.5-1.6 10.8-4.7 15.4-.8 1.3-1.8 2.5-3 3.7l-.2.2 53 23.8.2.1 2-4.5-47.3-21.5z"/></g></svg>