<svg xmlns="http://www.w3.org/2000/svg" xmlns:xlink="http://www.w3.org/1999/xlink" viewBox="0 0 195.7 50.1" enable-background="new 0 0 195.7 50.1"><defs><path id="a" d="M.4.1h195V50H.4z"/></defs><clipPath id="b"><use xlink:href="#a" overflow="visible"/></clipPath><path clip-path="url(#b)" fill="#30302F" d="M17.7 18H25c4.7 0 5.4.8 5.4 3.7 0 3.3-.9 4.5-6.4 4.5H12c-5.1 0-5.5-1.6-5.5-3.3v-2.8H1.2V23c0 8 8 8 11.4 8h10.7c4.6 0 12.3 0 12.3-8.3v-1.8c0-6.9-6.1-7.8-11.5-7.8H12.7c-6 0-6.3-1.1-6.3-3.7 0-3.7 1.3-4.3 9.3-4.3h4.1c9.8 0 9.8.6 9.9 4.6v.8H35V8.4C35 2.3 31.5.1 22.2.1h-8.3C5.9.1 1.3 1.5 1.3 8.9 1.2 17.6 6.6 18 17.7 18"/><defs><path id="c" d="M.4.1h195V50H.4z"/></defs><clipPath id="d"><use xlink:href="#c" overflow="visible"/></clipPath><path clip-path="url(#d)" fill="#30302F" d="M41.2 8.8h5v21.7h-5z"/><defs><path id="e" d="M.4.1h195V50H.4z"/></defs><clipPath id="f"><use xlink:href="#e" overflow="visible"/></clipPath><path clip-path="url(#f)" fill="#30302F" d="M41.2.4h5v5.3h-5z"/><defs><path id="g" d="M.4.1h195V50H.4z"/></defs><clipPath id="h"><use xlink:href="#g" overflow="visible"/></clipPath><path clip-path="url(#h)" fill="#30302F" d="M86.8 22.5v-1.8c0-6.9-6.1-7.8-11.5-7.8H63.8c-6 0-6.3-1.1-6.3-3.7 0-3.7 1.3-4.3 9.3-4.3h4.1c9.8 0 9.8.6 9.9 4.6v.8H86V8.4C86 2.3 82.5.1 73.2.1h-8.3c-8 0-12.6 1.4-12.6 8.8 0 8.7 5.3 9.1 16.5 9.1h7.3c4.7 0 5.4.8 5.4 3.7 0 3.3-.9 4.5-6.4 4.5h-12c-5.1 0-5.5-1.6-5.5-3.3v-2.8h-5.3V23c0 8 8 8 11.4 8h10.7c4.7-.1 12.4-.1 12.4-8.5"/><defs><path id="i" d="M.4.1h195V50H.4z"/></defs><clipPath id="j"><use xlink:href="#i" overflow="visible"/></clipPath><path clip-path="url(#j)" fill="#30302F" d="M101.7 30.6h5.5V5.2h14.5V.4H87.3v4.8h14.4z"/><defs><path id="k" d="M.4.1h195V50H.4z"/></defs><clipPath id="l"><use xlink:href="#k" overflow="visible"/></clipPath><path clip-path="url(#l)" fill="#30302F" d="M116.1 17.5v4.4c0 8 5.5 9.1 10.3 9.1h6.1c5.1 0 10.9-.8 10.9-6.8V23h-5v.8c-.1 2.2-.9 2.9-5.4 2.9h-4.7c-5.7 0-7.3-1.1-7.3-4.9v-.4h22.3V18c0-8.4-6-9.5-11.3-9.5h-5.4c-3 0-10.5 0-10.5 9m5.1-.8c.4-3.3 1.4-3.8 6-3.8h5c2.8 0 6.2.6 6.2 3.3v.5h-17.2z"/><defs><path id="m" d="M.4.1h195V50H.4z"/></defs><clipPath id="n"><use xlink:href="#m" overflow="visible"/></clipPath><path clip-path="url(#n)" fill="#30302F" d="M178.3 23.5v7.1h5.3v-8.1c0-2.5-.9-4.2-2.8-5.3 1.7-.7 3.2-2.3 3.2-5.6V9.3c0-5.8-1.6-8.9-10.4-8.9H150v30.2h5.5V19.3h18c3.3 0 4.8.4 4.8 4.2M155.5 5.2h16.8c6 0 6.2 1.2 6.2 3.4v2.6c0 2.1-.9 3.3-5.3 3.3h-17.7V5.2z"/><defs><path id="o" d="M.4.1h195V50H.4z"/></defs><clipPath id="p"><use xlink:href="#o" overflow="visible"/></clipPath><path clip-path="url(#p)" fill="#30302F" d="M.4 39.3h6v10.6h2.4V39.3h6v-2.1H.4z"/><defs><path id="q" d="M.4.1h195V50H.4z"/></defs><clipPath id="r"><use xlink:href="#q" overflow="visible"/></clipPath><path clip-path="url(#r)" fill="#30302F" d="M18.8 44.4h9.6v-2.1h-9.6v-3h10v-2.1H16.3v12.7h12.6v-2.2H18.8z"/><defs><path id="s" d="M.4.1h195V50H.4z"/></defs><clipPath id="t"><use xlink:href="#s" overflow="visible"/></clipPath><path clip-path="url(#t)" fill="#30302F" d="M43.5 46.2c0 1.2-.2 1.7-2.4 1.7h-5.6c-1.7 0-2.4-.6-2.4-2.1v-4.5c0-1.5.7-2.1 2.4-2.1h5.6c1.6 0 2.3.2 2.3 1.7v1h2.2v-1.4c0-1.5-.7-3.4-4.1-3.4h-6.1c-3.3 0-4.6 1.5-4.6 4.9v3.2c0 3.4 1.4 4.9 4.6 4.9h6.1c3.7 0 4.4-1.5 4.4-3.7V45h-2.3l-.1 1.2z"/><defs><path id="u" d="M.4.1h195V50H.4z"/></defs><clipPath id="v"><use xlink:href="#u" overflow="visible"/></clipPath><path clip-path="url(#v)" fill="#30302F" d="M60.4 42.3h-9.9v-5.1h-2.4v12.7h2.4v-5.5h9.9v5.5h2.5V37.2h-2.5z"/><defs><path id="w" d="M.4.1h195V50H.4z"/></defs><clipPath id="x"><use xlink:href="#w" overflow="visible"/></clipPath><path clip-path="url(#x)" fill="#30302F" d="M78.9 47l-10.3-9.8h-3v12.7H68V40l10.3 9.9h3V37.2h-2.4z"/><defs><path id="y" d="M.4.1h195V50H.4z"/></defs><clipPath id="z"><use xlink:href="#y" overflow="visible"/></clipPath><path clip-path="url(#z)" fill="#30302F" d="M95.2 37h-6.8c-3.3 0-4.6 1.5-4.6 4.9v3.2c0 3.4 1.4 4.9 4.6 4.9h6.8c3.3 0 4.6-1.5 4.6-4.9v-3.2c0-3.4-1.3-4.9-4.6-4.9m2.2 4.3v4.5c0 1.5-.7 2.1-2.4 2.1h-6.5c-1.7 0-2.4-.6-2.4-2.1v-4.5c0-1.5.7-2.1 2.4-2.1H95c1.8 0 2.4.5 2.4 2.1"/><defs><path id="A" d="M.4.1h195V50H.4z"/></defs><clipPath id="B"><use xlink:href="#A" overflow="visible"/></clipPath><path clip-path="url(#B)" fill="#30302F" d="M104.8 37.2h-2.4v12.7H114v-2.2h-9.2z"/><defs><path id="C" d="M.4.1h195V50H.4z"/></defs><clipPath id="D"><use xlink:href="#C" overflow="visible"/></clipPath><path clip-path="url(#D)" fill="#30302F" d="M126.6 37h-6.8c-3.3 0-4.6 1.5-4.6 4.9v3.2c0 3.4 1.4 4.9 4.6 4.9h6.8c3.3 0 4.6-1.5 4.6-4.9v-3.2c0-3.4-1.4-4.9-4.6-4.9m2.2 4.3v4.5c0 1.5-.7 2.1-2.4 2.1h-6.5c-1.7 0-2.4-.6-2.4-2.1v-4.5c0-1.5.7-2.1 2.4-2.1h6.5c1.7 0 2.4.5 2.4 2.1"/><defs><path id="E" d="M.4.1h195V50H.4z"/></defs><clipPath id="F"><use xlink:href="#E" overflow="visible"/></clipPath><path clip-path="url(#F)" fill="#30302F" d="M140.6 45.3h6.1v.8c0 1.3-.6 1.8-2.2 1.8h-6.3c-1.7 0-2.4-.6-2.4-2.1v-4.5c0-1.5.7-2.1 2.4-2.1h4.2c4.1 0 4.2.2 4.2 2v.4h2.3v-.8c0-2.4-1.6-3.7-4.8-3.7H138c-3.3 0-4.6 1.5-4.6 4.9v3.2c0 3.4 1.4 4.9 4.6 4.9h6.6c3.2 0 4.4-1.3 4.4-4.8v-2h-8.5l.1 2z"/><defs><path id="G" d="M.4.1h195V50H.4z"/></defs><clipPath id="H"><use xlink:href="#G" overflow="visible"/></clipPath><path clip-path="url(#H)" fill="#30302F" d="M151.7 37.2h2.4v12.7h-2.4z"/><defs><path id="I" d="M.4.1h195V50H.4z"/></defs><clipPath id="J"><use xlink:href="#I" overflow="visible"/></clipPath><path clip-path="url(#J)" fill="#30302F" d="M159.4 44.4h9.7v-2.1h-9.7v-3h10.1v-2.1H157v12.7h12.5v-2.2h-10.1z"/><defs><path id="K" d="M.4.1h195V50H.4z"/></defs><clipPath id="L"><use xlink:href="#K" overflow="visible"/></clipPath><path clip-path="url(#L)" fill="#30302F" d="M181 42.3h-4.8c-2.5 0-2.5-.5-2.5-1.5 0-1.5.5-1.7 3.8-1.7h1.7c4 0 4 .2 4 1.8v.4h2.3v-.8c0-2.6-1.5-3.5-5.4-3.5h-3.5c-3.3 0-5.3.6-5.3 3.7 0 3.7 2.2 3.9 6.9 3.9h3.1c2 0 2.2.4 2.2 1.5 0 1.4-.4 1.8-2.6 1.8h-5c-2 0-2.2-.6-2.2-1.3v-1.2h-2.3v1.3c0 3.4 3.4 3.4 4.8 3.4h4.5c1.9 0 5.2 0 5.2-3.5v-.8c-.1-3.1-2.8-3.5-4.9-3.5"/><defs><path id="M" d="M.4.1h195V50H.4z"/></defs><clipPath id="N"><use xlink:href="#M" overflow="visible"/></clipPath><path clip-path="url(#N)" fill="#30302F" d="M188.8.9h-1.3V.4h3.2v.5h-1.3v3.8h-.6z"/><defs><path id="O" d="M.4.1h195V50H.4z"/></defs><clipPath id="P"><use xlink:href="#O" overflow="visible"/></clipPath><path clip-path="url(#P)" fill="#30302F" d="M194.7 2.8c0-.6-.1-1.3-.1-1.8-.2.5-.3 1-.5 1.6l-.7 2.1h-.4l-.7-2c-.3-.7-.4-1.2-.5-1.7 0 .5 0 1.2-.1 1.9l-.1 1.8h-.6l.3-4.2h.7l.7 2.1c.2.5.3 1 .4 1.4.1-.4.3-.9.5-1.4l.8-2.1h.7l.3 4.2h-.5l-.2-1.9z"/></svg>