<svg xmlns="http://www.w3.org/2000/svg" viewBox="13.7 13.6 131 129.5" enable-background="new 13.7 13.6 131 129.5"><path fill="#231F20" d="M39 107.2v17.7H20.3v-17.7h-6.6v16.3c0 5.3 1.7 6.7 7 6.7h24.8v-23H39zM144.7 115.3V113c0-5.3-1.7-6.7-7-6.7H113v17.2c0 5.3 1.7 6.7 7 6.7h17.7c5.3 0 7-1.4 7-6.7V121h-6.6v3.9h-18.6v-13.5h18.6v4c.1-.1 6.6-.1 6.6-.1zM92.1 106.3H59.4v23.9H66v-18.6h10v18.6h6.6v-18.6h10v18.6h6.6V113c-.1-5.3-1.8-6.7-7.1-6.7zM47.8 50.3l1.2 1.2 30.7-30.7-1.2-1.2zM64.1 34.7h31.7v1.7H64.1zM64.1 65.6h31.7v1.7H64.1zM93.9 33.9h1.7v31.7h-1.7zM62.9 33.9h1.7v31.7h-1.7zM63.3 65.8l1.2 1.2 30.7-30.7-1.2-1.2zM78.7 81.2l1.2 1.2 30.7-30.7-1.2-1.2zM78.5 82.4l1.2-1.2L49 50.5l-1.2 1.2zM94 66.9l1.2-1.2L64.5 35l-1.2 1.2zM48.7 50.1h61.1v1.7H48.7zM78.4 20.4h1.7v61.1h-1.7zM109.4 51.5l1.2-1.2-30.7-30.7-1.2 1.2z"/><path fill="#B2876F" d="M44.4 54.9c-2.2-2.2-2.2-5.8 0-8s5.8-2.2 8 0 2.2 5.8 0 8-5.8 2.2-8 0z"/><path fill="#231F20" d="M43.8 46.3c-1.3 1.3-1.9 3-1.9 4.6 0 1.7.6 3.3 1.9 4.6 1.2 1.2 2.9 1.9 4.6 1.9 1.7 0 3.4-.7 4.6-1.9 2.5-2.5 2.5-6.7 0-9.2-1.2-1.2-2.9-1.9-4.6-1.9-1.7 0-3.4.6-4.6 1.9zm1.2 8c-1.9-1.9-1.9-4.9 0-6.8.9-.9 2.1-1.4 3.4-1.4 1.3 0 2.5.5 3.4 1.4 1.9 1.9 1.9 4.9 0 6.8-.9.9-2.1 1.4-3.4 1.4-1.3 0-2.5-.5-3.4-1.4zm-1.2 1.2z"/><path fill="#B2876F" d="M59.8 39.5c-2.2-2.2-2.2-5.8 0-8s5.8-2.2 8 0 2.2 5.8 0 8-5.8 2.2-8 0z"/><path fill="#231F20" d="M63.8 29c-1.7 0-3.4.7-4.6 1.9-1.2 1.2-1.9 2.9-1.9 4.6 0 1.8.7 3.4 1.9 4.6 2.5 2.5 6.7 2.5 9.2 0 2.5-2.6 2.5-6.7 0-9.2-1.2-1.2-2.9-1.9-4.6-1.9zM59 35.5c0-1.3.5-2.5 1.4-3.4 1.9-1.9 4.9-1.9 6.8 0 1.9 1.9 1.9 4.9 0 6.8s-4.9 1.9-6.8 0c-.9-.9-1.4-2.1-1.4-3.4z"/><path fill="#B2876F" d="M75.2 24.1c-2.2-2.2-2.2-5.8 0-8s5.8-2.2 8 0 2.2 5.8 0 8-5.8 2.2-8 0z"/><path fill="#231F20" d="M74.6 15.5c-2.5 2.5-2.5 6.7 0 9.2 2.5 2.5 6.7 2.5 9.2 0 1.2-1.2 1.9-2.9 1.9-4.6 0-1.7-.7-3.4-1.9-4.6-1.2-1.2-2.9-1.9-4.6-1.9-1.8 0-3.4.7-4.6 1.9zm-.2 4.6c0-1.2.5-2.5 1.4-3.4.9-.9 2.1-1.4 3.4-1.4 1.3 0 2.5.5 3.4 1.4.9.9 1.4 2.1 1.4 3.4s-.5 2.5-1.4 3.4c-1.9 1.9-4.9 1.9-6.8 0-1-.9-1.4-2.2-1.4-3.4z"/><path fill="#B2876F" d="M75.3 85.8c-2.2-2.2-2.2-5.8 0-8s5.8-2.2 8 0 2.2 5.8 0 8-5.8 2.2-8 0z"/><path fill="#231F20" d="M74.7 77.2c-1.2 1.2-1.9 2.9-1.9 4.6 0 1.7.7 3.4 1.9 4.6 1.2 1.2 2.9 1.9 4.6 1.9s3.4-.7 4.6-1.9c2.5-2.5 2.5-6.7 0-9.2-2.5-2.6-6.7-2.6-9.2 0zm1.2 8c-.9-.9-1.4-2.1-1.4-3.4s.5-2.5 1.4-3.4c1.9-1.9 4.9-1.9 6.8 0 1.9 1.9 1.9 4.9 0 6.8-.9.9-2.1 1.4-3.4 1.4-1.3 0-2.5-.5-3.4-1.4zm-1.2 1.2z"/><path fill="#B2876F" d="M90.7 70.4c-2.2-2.2-2.2-5.8 0-8s5.8-2.2 8 0 2.2 5.8 0 8-5.8 2.2-8 0z"/><path fill="#231F20" d="M90.1 61.8c-2.5 2.5-2.5 6.7 0 9.2 2.5 2.6 6.7 2.6 9.2 0 2.5-2.5 2.5-6.7 0-9.2-2.5-2.5-6.7-2.5-9.2 0zm-.2 4.6c0-1.2.5-2.5 1.4-3.4 1.9-1.9 4.9-1.9 6.8 0 1.9 1.9 1.9 4.9 0 6.8-1.9 1.9-4.9 1.9-6.8 0-.9-.9-1.4-2.2-1.4-3.4z"/><path fill="#B2876F" d="M106.1 55c-2.2-2.2-2.2-5.8 0-8s5.8-2.2 8 0 2.2 5.8 0 8-5.8 2.2-8 0z"/><path fill="#231F20" d="M105.5 46.4c-2.5 2.5-2.5 6.7 0 9.2 1.2 1.2 2.9 1.9 4.6 1.9 1.7 0 3.4-.7 4.6-1.9 2.5-2.6 2.5-6.7 0-9.2-1.2-1.2-2.9-1.9-4.6-1.9-1.8 0-3.4.7-4.6 1.9zm-.2 4.6c0-1.2.5-2.5 1.4-3.4.9-.9 2.1-1.4 3.4-1.4 1.3 0 2.5.5 3.4 1.4 1.9 1.9 1.9 4.9 0 6.8-.9.9-2.1 1.4-3.4 1.4-1.3 0-2.5-.5-3.4-1.4-1-.9-1.4-2.1-1.4-3.4z"/><path fill="#B2876F" d="M59.8 70.4c-2.2-2.2-2.2-5.8 0-8s5.8-2.2 8 0 2.2 5.8 0 8-5.7 2.2-8 0z"/><path fill="#231F20" d="M59.2 61.7c-2.5 2.6-2.5 6.7 0 9.2 2.5 2.6 6.7 2.6 9.2 0 1.2-1.2 1.9-2.9 1.9-4.6 0-1.8-.7-3.4-1.9-4.6-1.2-1.2-2.9-1.9-4.6-1.9-1.7 0-3.3.7-4.6 1.9zm-.2 4.7c0-1.3.5-2.5 1.4-3.4.9-.9 2.1-1.4 3.4-1.4 1.3 0 2.5.5 3.4 1.4.9.9 1.4 2.1 1.4 3.4 0 1.3-.5 2.5-1.4 3.4-1.9 1.9-4.9 1.9-6.8 0-.9-1-1.4-2.2-1.4-3.4z"/><path fill="#B2876F" d="M75.2 55c-2.2-2.2-2.2-5.8 0-8s5.8-2.2 8 0 2.2 5.8 0 8-5.8 2.2-8 0z"/><path fill="#231F20" d="M79.2 44.4c-1.7 0-3.4.7-4.6 1.9-1.2 1.2-1.9 2.9-1.9 4.6 0 1.7.7 3.4 1.9 4.6 1.2 1.2 2.9 1.9 4.6 1.9 1.7 0 3.4-.7 4.6-1.9 1.2-1.2 1.9-2.9 1.9-4.6 0-1.7-.7-3.4-1.9-4.6-1.2-1.2-2.8-1.9-4.6-1.9zm-3.4 10c-.9-.9-1.4-2.1-1.4-3.4 0-1.3.5-2.5 1.4-3.4.9-.9 2.1-1.4 3.4-1.4 1.3 0 2.5.5 3.4 1.4.9.9 1.4 2.1 1.4 3.4 0 1.3-.5 2.5-1.4 3.4-.9.9-2.1 1.4-3.4 1.4-1.3 0-2.5-.5-3.4-1.4zm-1.2 1.2z"/><path fill="#B2876F" d="M90.6 39.6c-2.2-2.2-2.2-5.8 0-8s5.8-2.2 8 0 2.2 5.8 0 8-5.8 2.2-8 0z"/><path fill="#231F20" d="M90 31c-1.2 1.2-1.9 2.9-1.9 4.6 0 1.7.7 3.4 1.9 4.6 1.2 1.2 2.9 1.9 4.6 1.9 1.7 0 3.4-.7 4.6-1.9 2.6-2.5 2.6-6.7 0-9.2-2.5-2.6-6.6-2.6-9.2 0zm1.2 8c-.9-.9-1.4-2.1-1.4-3.4 0-1.3.5-2.5 1.4-3.4 1.9-1.9 4.9-1.9 6.8 0 1.9 1.9 1.9 4.9 0 6.8-.9.9-2.1 1.4-3.4 1.4-1.3 0-2.5-.5-3.4-1.4zM90 40.2z"/><path fill="#B2876F" d="M21.1 136.5h-5.3v5h5.3v-1.7l2 .4v1c0 .8-.2 1.3-.4 1.5-.3.3-.9.4-1.7.4h-5c-.8 0-1.4-.1-1.7-.4-.3-.3-.4-.8-.4-1.5V137c0-.8.1-1.2.4-1.5.3-.3.8-.4 1.7-.4h5c.8 0 1.4.1 1.7.4.3.3.4.8.4 1.5v.8l-2 .3v-1.6zM33.6 136.9c0-.8.1-1.3.4-1.5.3-.2.8-.4 1.7-.4h6.2c.8 0 1.4.1 1.7.4.3.3.4.8.4 1.5v4.2c0 .8-.1 1.3-.4 1.5-.3.3-.9.4-1.6.4h-6.2c-.8 0-1.4-.1-1.7-.4-.3-.3-.4-.8-.4-1.5-.1.1-.1-4.2-.1-4.2zm2 4.6H42v-5h-6.5c.1 0 .1 5 .1 5zM55 143.1v-8h1.3l6.8 5.3V135h1.8v8h-1.3l-6.8-5.4v5.4H55zM76.1 143.1v-8h1.3l6.8 5.3V135H86v8h-1.3l-6.8-5.4v5.4h-1.8zM97.1 143.1v-8h8.6v1.4h-6.6v1.7h3.9v1.4h-3.9v2h6.7v1.5h-8.7zM123.3 136.5H118v5h5.3v-1.7l2 .4v1c0 .8-.2 1.3-.5 1.5-.3.3-.9.4-1.7.4h-5c-.8 0-1.4-.1-1.6-.4-.3-.3-.4-.8-.4-1.5V137c0-.8.1-1.2.4-1.5.3-.3.8-.4 1.6-.4h5c.8 0 1.4.1 1.7.4.3.3.5.8.5 1.5v.8l-2 .3v-1.6zM140.8 136.5v6.6h-1.9v-6.6H135V135h9.7v1.4h-3.9z"/></svg>