<svg xmlns="http://www.w3.org/2000/svg" viewBox="0 0 175 42.2" enable-background="new 0 0 175 42.2"><path fill="#F29020" d="M7.8 21.1L21 34.3v7.9L0 21.1V21L21 0v7.9zM175 21.1l-21 21.1v-7.9l13.2-13.2L154 7.9V0l21 21z"/><g fill="#ffffff"><path d="M40.5 26.3c-.4 0-.6-.2-.6-.6v-6.1c0-3.5-1.8-5.3-5.3-5.3-3.2 0-5.2 1.6-5.2 1.6l1.1 1.9s1.8-1.3 3.9-1.3c1.7 0 2.9.8 2.9 2.9v.5h-.9c-1.7 0-5.2.2-7 2 0 0-.1 0-.1.1l-2.7 2.6c-.5.5-2.1 1.8-4.4 1.8-2.6 0-4.8-1.8-4.8-4.9 0-2.9 1.9-4.9 4.7-4.9 1.2 0 3 .5 3 1.6v1h2.3v-1.7c0-2.4-3.3-3.1-5.4-3.1-4.1 0-7.3 3-7.3 7.2 0 4.4 3.4 7.2 7.4 7.2 2.9 0 4.9-1.5 5.5-2.1l1-.9c.5 2 2.5 3 4.4 3 3.3 0 4.5-2.9 4.5-2.9h.1s-.1.3-.1.9v.2c0 .9.5 1.5 1.7 1.5h2.7v-2h-1.4zm-3.3-4.1c0 2.1-1.4 4.4-3.8 4.4-1.6 0-2.5-1.1-2.5-2.3 0-2.6 4.3-2.7 5.5-2.7h.7v.6zM42.7 23.9H45v.9c0 1.2 1.6 1.7 3.1 1.7s2.8-.6 2.8-1.8c0-1.4-1.5-1.8-3.4-2.5-2-.8-4.3-1.7-4.3-4.2 0-2.7 2.7-3.8 5.1-3.8 1.9 0 4.7.8 4.7 2.8v1.7h-2.3v-.9c0-.8-1.1-1.4-2.4-1.4-1.3 0-2.4.5-2.4 1.7 0 1.3 1.5 1.8 3.2 2.4 2.1.7 4.5 1.6 4.5 4.1 0 2.6-2.4 4-5.5 4-2.5 0-5.4-1.1-5.4-3.3v-1.4zM62.4 14.3c3.9 0 5.9 2.9 5.9 6.4 0 .4-.1 1-.1 1h-10c.2 3 2.3 4.7 4.7 4.7 2.4 0 4.1-1.5 4.1-1.5l1.1 1.9s-2.1 1.9-5.3 1.9c-4.3 0-7.3-3.1-7.3-7.2.1-4.4 3-7.2 6.9-7.2zm3.3 5.7c-.1-2.4-1.5-3.7-3.3-3.7-2 0-3.6 1.4-4 3.7h7.3zM72.6 31.8c1.2 0 2.1-.8 2.5-1.9l.6-1.4-4.8-11.9h-1.7v-2h6.3v2h-1.8l3.1 8.2.2 1.2s.1-.6.3-1.2l3-8.2h-1.8v-2h6.1v2H83l-5.4 13.9c-.9 2.3-2.7 3.5-4.8 3.5-1.8 0-3-.9-3-.9l.9-2c0 .1.8.7 1.9.7zM84.3 26.2h2.4V11.3h-2.4V9.2H93c1.4 0 2.4.1 3.4.6 1.5.7 2.6 2.2 2.6 4.3 0 1.9-.9 3.4-2.4 4.1v.1c2.1.6 3.2 2.5 3.2 4.6 0 2.5-1.5 4.4-3.5 5.1-.9.3-1.8.4-2.9.4h-9.1v-2.2zm9.1-9c1.7 0 2.8-1.2 2.8-2.9 0-1.1-.4-2.1-1.2-2.5-.5-.3-1.2-.4-2-.4h-3.6v5.8h4zm.1 8.9c.5 0 1.2-.1 1.7-.3 1.1-.5 1.8-1.7 1.8-3.1 0-2-1.3-3.3-3.3-3.3h-4.3V26h4.1zM109.1 19.9h.9v-.5c0-2.2-1.2-2.9-2.9-2.9-2.2 0-3.9 1.3-3.9 1.3l-1.1-1.9s2-1.6 5.2-1.6c3.5 0 5.3 1.8 5.3 5.3v6.1c0 .4.2.6.6.6h1.4v2h-2.7c-1.2 0-1.7-.6-1.7-1.5v-.2c0-.5.1-.9.1-.9h-.1s-1.2 2.9-4.5 2.9c-2.3 0-4.6-1.3-4.6-4.1 0-4.3 5.7-4.6 8-4.6zm-2.9 6.7c2.3 0 3.8-2.4 3.8-4.4v-.6h-.7c-1.2 0-5.6.1-5.6 2.7.1 1.2 1 2.3 2.5 2.3zM121.2 31.8c2.4 0 4.3-1.1 4.3-3.9v-1.1c0-.4.1-.9.1-.9h-.1c-.8 1.4-2.1 2.2-4.1 2.2-3.8 0-6.1-3.1-6.1-7s2.2-6.9 6-6.9c1.8 0 3.7.7 4.4 2.2h.1s-.1-.2-.1-.5c0-.9.4-1.4 1.6-1.4h2.9v2h-1.5c-.4 0-.6.2-.6.5v10.6c0 4.5-3.4 6.3-6.9 6.3-1.7 0-3.3-.5-4.7-1.1l.9-2c.1.1 1.8 1 3.8 1zm4.4-10.6c0-3.6-1.7-4.6-3.9-4.6-2.4 0-3.7 1.7-3.7 4.5s1.5 4.8 4 4.8c1.9 0 3.6-1.2 3.6-4.7zM154.6 24.1v2.2H148.4v-.1l.8-.8 7.5-9.2v-1.7h-13.5c-1.1 0-1.6.5-1.6 1.4v.5c-.8-1.6-2.7-2.2-4.4-2.2-3.8 0-6 2.9-6 6.9s2.3 7 6.1 7c2 0 3.3-.9 4.1-2.2h.1s-.1.4-.1.9v1.1c0 2.8-2 3.9-4.3 3.9-2.1 0-3.8-.9-3.8-.9l-.9 2c1.4.7 3 1.1 4.7 1.1 3.5 0 6.9-1.7 6.9-6.3V17.2c0-.3.2-.5.6-.5h7.8c.5 0 1.1-.1 1.1-.1v.1s-.4.3-.8.8l-7.6 9.2v1.7h11.7v-4.2h-2.2zm-16.7 1.8c-2.5 0-4-2-4-4.8s1.4-4.5 3.7-4.5c2.1 0 3.9 1 3.9 4.6 0 3.5-1.7 4.7-3.6 4.7z"/></g></svg>
