<?xml version="1.0" encoding="UTF-8"?>
<svg width="175px" height="43px" viewBox="0 0 175 43" version="1.1" xmlns="http://www.w3.org/2000/svg" xmlns:xlink="http://www.w3.org/1999/xlink">
    <!-- Generator: Sketch 46.2 (44496) - http://www.bohemiancoding.com/sketch -->
    <title>baggz</title>
    <desc>Created with Sketch.</desc>
    <defs></defs>
    <g id="Page-1" stroke="none" stroke-width="1" fill="none" fill-rule="evenodd">
        <g id="baggz" fill-rule="nonzero">
            <path d="M7.8,21.1 L21,34.3 L21,42.2 L0,21.1 L0,21 L21,0 L21,7.9 L7.8,21.1 Z M175,21.1 L154,42.2 L154,34.3 L167.2,21.1 L154,7.9 L154,0 L175,21 L175,21.1 Z" id="Shape" fill="#F29020"></path>
            <path d="M40.5,26.3 C40.1,26.3 39.9,26.1 39.9,25.7 L39.9,19.6 C39.9,16.1 38.1,14.3 34.6,14.3 C31.4,14.3 29.4,15.9 29.4,15.9 L30.5,17.8 C30.5,17.8 32.3,16.5 34.4,16.5 C36.1,16.5 37.3,17.3 37.3,19.4 L37.3,19.9 L36.4,19.9 C34.7,19.9 31.2,20.1 29.4,21.9 C29.4,21.9 29.3,21.9 29.3,22 L26.6,24.6 C26.1,25.1 24.5,26.4 22.2,26.4 C19.6,26.4 17.4,24.6 17.4,21.5 C17.4,18.6 19.3,16.6 22.1,16.6 C23.3,16.6 25.1,17.1 25.1,18.2 L25.1,19.2 L27.4,19.2 L27.4,17.5 C27.4,15.1 24.1,14.4 22,14.4 C17.9,14.4 14.7,17.4 14.7,21.6 C14.7,26 18.1,28.8 22.1,28.8 C25,28.8 27,27.3 27.6,26.7 L28.6,25.8 C29.1,27.8 31.1,28.8 33,28.8 C36.3,28.8 37.5,25.9 37.5,25.9 L37.6,25.9 C37.6,25.9 37.5,26.2 37.5,26.8 L37.5,27 C37.5,27.9 38,28.5 39.2,28.5 L41.9,28.5 L41.9,26.5 L40.5,26.5 L40.5,26.3 Z M37.2,22.2 C37.2,24.3 35.8,26.6 33.4,26.6 C31.8,26.6 30.9,25.5 30.9,24.3 C30.9,21.7 35.2,21.6 36.4,21.6 L37.1,21.6 L37.1,22.2 L37.2,22.2 Z M42.7,23.9 L45,23.9 L45,24.8 C45,26 46.6,26.5 48.1,26.5 C49.6,26.5 50.9,25.9 50.9,24.7 C50.9,23.3 49.4,22.9 47.5,22.2 C45.5,21.4 43.2,20.5 43.2,18 C43.2,15.3 45.9,14.2 48.3,14.2 C50.2,14.2 53,15 53,17 L53,18.7 L50.7,18.7 L50.7,17.8 C50.7,17 49.6,16.4 48.3,16.4 C47,16.4 45.9,16.9 45.9,18.1 C45.9,19.4 47.4,19.9 49.1,20.5 C51.2,21.2 53.6,22.1 53.6,24.6 C53.6,27.2 51.2,28.6 48.1,28.6 C45.6,28.6 42.7,27.5 42.7,25.3 L42.7,23.9 L42.7,23.9 Z M62.4,14.3 C66.3,14.3 68.3,17.2 68.3,20.7 C68.3,21.1 68.2,21.7 68.2,21.7 L58.2,21.7 C58.4,24.7 60.5,26.4 62.9,26.4 C65.3,26.4 67,24.9 67,24.9 L68.1,26.8 C68.1,26.8 66,28.7 62.8,28.7 C58.5,28.7 55.5,25.6 55.5,21.5 C55.6,17.1 58.5,14.3 62.4,14.3 L62.4,14.3 Z M65.7,20 C65.6,17.6 64.2,16.3 62.4,16.3 C60.4,16.3 58.8,17.7 58.4,20 L65.7,20 Z M72.6,31.8 C73.8,31.8 74.7,31 75.1,29.9 L75.7,28.5 L70.9,16.6 L69.2,16.6 L69.2,14.6 L75.5,14.6 L75.5,16.6 L73.7,16.6 L76.8,24.8 L77,26 C77,26 77.1,25.4 77.3,24.8 L80.3,16.6 L78.5,16.6 L78.5,14.6 L84.6,14.6 L84.6,16.6 L83,16.6 L77.6,30.5 C76.7,32.8 74.9,34 72.8,34 C71,34 69.8,33.1 69.8,33.1 L70.7,31.1 C70.7,31.2 71.5,31.8 72.6,31.8 L72.6,31.8 Z M84.3,26.2 L86.7,26.2 L86.7,11.3 L84.3,11.3 L84.3,9.2 L93,9.2 C94.4,9.2 95.4,9.3 96.4,9.8 C97.9,10.5 99,12 99,14.1 C99,16 98.1,17.5 96.6,18.2 L96.6,18.3 C98.7,18.9 99.8,20.8 99.8,22.9 C99.8,25.4 98.3,27.3 96.3,28 C95.4,28.3 94.5,28.4 93.4,28.4 L84.3,28.4 L84.3,26.2 L84.3,26.2 Z M93.4,17.2 C95.1,17.2 96.2,16 96.2,14.3 C96.2,13.2 95.8,12.2 95,11.8 C94.5,11.5 93.8,11.4 93,11.4 L89.4,11.4 L89.4,17.2 L93.4,17.2 Z M93.5,26.1 C94,26.1 94.7,26 95.2,25.8 C96.3,25.3 97,24.1 97,22.7 C97,20.7 95.7,19.4 93.7,19.4 L89.4,19.4 L89.4,26 L93.5,26 L93.5,26.1 Z M109.1,19.9 L110,19.9 L110,19.4 C110,17.2 108.8,16.5 107.1,16.5 C104.9,16.5 103.2,17.8 103.2,17.8 L102.1,15.9 C102.1,15.9 104.1,14.3 107.3,14.3 C110.8,14.3 112.6,16.1 112.6,19.6 L112.6,25.7 C112.6,26.1 112.8,26.3 113.2,26.3 L114.6,26.3 L114.6,28.3 L111.9,28.3 C110.7,28.3 110.2,27.7 110.2,26.8 L110.2,26.6 C110.2,26.1 110.3,25.7 110.3,25.7 L110.2,25.7 C110.2,25.7 109,28.6 105.7,28.6 C103.4,28.6 101.1,27.3 101.1,24.5 C101.1,20.2 106.8,19.9 109.1,19.9 L109.1,19.9 Z M106.2,26.6 C108.5,26.6 110,24.2 110,22.2 L110,21.6 L109.3,21.6 C108.1,21.6 103.7,21.7 103.7,24.3 C103.8,25.5 104.7,26.6 106.2,26.6 Z M121.2,31.8 C123.6,31.8 125.5,30.7 125.5,27.9 L125.5,26.8 C125.5,26.4 125.6,25.9 125.6,25.9 L125.5,25.9 C124.7,27.3 123.4,28.1 121.4,28.1 C117.6,28.1 115.3,25 115.3,21.1 C115.3,17.2 117.5,14.2 121.3,14.2 C123.1,14.2 125,14.9 125.7,16.4 L125.8,16.4 C125.8,16.4 125.7,16.2 125.7,15.9 C125.7,15 126.1,14.5 127.3,14.5 L130.2,14.5 L130.2,16.5 L128.7,16.5 C128.3,16.5 128.1,16.7 128.1,17 L128.1,27.6 C128.1,32.1 124.7,33.9 121.2,33.9 C119.5,33.9 117.9,33.4 116.5,32.8 L117.4,30.8 C117.5,30.9 119.2,31.8 121.2,31.8 L121.2,31.8 Z M125.6,21.2 C125.6,17.6 123.9,16.6 121.7,16.6 C119.3,16.6 118,18.3 118,21.1 C118,23.9 119.5,25.9 122,25.9 C123.9,25.9 125.6,24.7 125.6,21.2 L125.6,21.2 Z M154.6,24.1 L154.6,26.3 L148.4,26.3 L148.4,26.2 L149.2,25.4 L156.7,16.2 L156.7,14.5 L143.2,14.5 C142.1,14.5 141.6,15 141.6,15.9 L141.6,16.4 C140.8,14.8 138.9,14.2 137.2,14.2 C133.4,14.2 131.2,17.1 131.2,21.1 C131.2,25.1 133.5,28.1 137.3,28.1 C139.3,28.1 140.6,27.2 141.4,25.9 L141.5,25.9 C141.5,25.9 141.4,26.3 141.4,26.8 L141.4,27.9 C141.4,30.7 139.4,31.8 137.1,31.8 C135,31.8 133.3,30.9 133.3,30.9 L132.4,32.9 C133.8,33.6 135.4,34 137.1,34 C140.6,34 144,32.3 144,27.7 L144,17.2 C144,16.9 144.2,16.7 144.6,16.7 L152.4,16.7 C152.9,16.7 153.5,16.6 153.5,16.6 L153.5,16.7 C153.5,16.7 153.1,17 152.7,17.5 L145.1,26.7 L145.1,28.4 L156.8,28.4 L156.8,24.2 L154.6,24.2 L154.6,24.1 Z M137.9,25.9 C135.4,25.9 133.9,23.9 133.9,21.1 C133.9,18.3 135.3,16.6 137.6,16.6 C139.7,16.6 141.5,17.6 141.5,21.2 C141.5,24.7 139.8,25.9 137.9,25.9 Z" id="Shape" fill="#546575"></path>
        </g>
    </g>
</svg>