<svg version="1" xmlns="http://www.w3.org/2000/svg" viewBox="0 0 100 100" enable-background="new 0 0 100 100"><g fill="#fff"><path d="M14.2 57.6h6.9l-.3 30.6h45.8V57.8h7.2v38H14.1c.1-.1.1-38.2.1-38.2z"/><path d="M25.5 75.6h35.8v7.7H25.5z"/><path d="M26.357 61.89l35.934 3.467-.75 7.764-35.933-3.466z"/><path d="M29.535 46.344l34.743 9.804-2.118 7.507-34.743-9.805z"/><path d="M38.03 28.835L68.932 47.5 64.9 54.175 33.997 35.512z"/><path d="M55.463 12.262l21.024 29.346-6.34 4.543-21.025-29.345z"/><path d="M79.964 4.217l5.95 35.606-7.694 1.285-5.95-35.605z"/></g></svg>