<svg xmlns="http://www.w3.org/2000/svg" viewBox="0 0 100 100" enable-background="new 0 0 100 100"><g><g fill="#fff"><path d="M95.5 48.9c.1 24.5-19.6 45.9-46 45.9C22.6 94.7 2.7 72.1 3.6 47 4.4 24 23.5 2.6 49.8 2.8c25.8.1 46 21.2 45.7 46.1zm-28 22C77 68.2 83 59.8 82.4 50.4c-.3-4.7-3.7-8.9-8.2-10.1-3-.8-6.1-.7-9 .2-2.5.8-4.8 2-7.2 3 3.5-11 10.8-17.6 22.6-19.3-.1-1.1-.3-2-.4-3-1 .1-1.7.2-2.5.3-1.2.2-2.4.4-3.6.7-9.2 2.1-17.3 6.3-23.4 13.7-2 2.5-3.5 5.4-5.2 8.1-.3-4.2-1.7-5.8-5.8-7-.6-.2-1.3-.3-1.9-.4-3.4-.6-6.7-.6-10.1 0-3.7.7-7.2 1.8-9.8 4.8-3.3 3.8-3 9.4 1 12.5 1.9 1.4 4.2 2.3 6.3 3.3 1.3.6 2.8 1 4.1 1.7 3.7 1.9 3.9 6.8.4 9-1.1.7-2.5.9-3.8 1.3-.2.1-.4.1-.5.1-.7 0-1.1-.5-1.3-1.3-.4-1.2-.7-2.5-1.3-3.6-.6-1.2-1.4-2.4-2.3-3.3-2.3-2.2-6.3-1.9-8.2.5-1.9 2.4-1.1 5.5 1.9 7.4.8.5 1.6.9 2.4 1.2 2.9.9 5.9 1.3 8.8 1.4 3.3.1 6.5-.4 9.8-1.5 1.9-.6 3.8-1.9 5.2-3.3 1.9-1.9 3.1-5 2.8-7.9h.5c.6 5.8 4.3 10.3 9.8 12.1 2.5.8 4.9 1.1 7.4 1.1 2.1-.1 4.4-.5 6.6-1.2zM70 50.8c.4 4.7-.4 9.3-2.8 13.5-.7 1.2-1.6 2.4-2.6 3.4-1.3 1.2-2.6 1.7-3.9 1.7-2 0-3.7-1.3-4.5-3.8 0-.1 0-.2-.1-.2-.5-1.7-.9-6.4-.6-10.7.3-1.9.6-3.8 1.1-5.5.9-2.3 2.6-3.6 4.7-4.2.3-.1.6-.2 1-.2.2 0 .3-.1.5-.1 4.8-.9 6.9 2.5 7.2 6.1zM56.5 49.1c-.5 1.8-.8 3.7-1.1 5.5.2-2 .6-3.9 1.1-5.5zM44.1 46.1c.4-.3.8-.7 1.2-1-1.6 4.3-2.2 8.7-1.8 13.2 0 .2 0 .4.1.6h-.5c-.3-2.5-1.7-4.9-4.6-6.5-1.4-.8-2.9-1.4-4.4-2-1.6-.7-3.3-1.2-4.9-1.9-1.2-.5-2.1-1.4-2.5-2.8-.8-3.6 2.1-6.8 6.2-6.8.3.8.4 1.6.8 2.3.9 1.7 1.6 3.5 2.8 4.8 2 2.3 5.5 2.2 7.6.1z"/></g></g></svg>