<svg xmlns="http://www.w3.org/2000/svg" viewBox="0 0 100 100"><path fill="#fff" d="M50 0C22.4 0 0 22.4 0 50s22.4 50 50 50 50-22.4 50-50S77.6 0 50 0zm29.7 79.7c-3.9 3.9-8.4 6.9-13.3 9-1.3.5-2.6 1-3.9 1.4v-7.5c0-3.9-1.4-6.8-4.1-8.7 1.7-.2 3.2-.4 4.7-.7 1.4-.3 2.9-.7 4.5-1.3s3-1.2 4.2-2 2.5-1.8 3.6-3 2.1-2.6 2.9-4.2 1.4-3.4 1.9-5.6.7-4.5.7-7.2c0-5-1.6-9.3-4.9-12.9 1.5-3.9 1.3-8.2-.5-12.7l-1.2-.1c-.8-.1-2.4.3-4.6 1.1s-4.7 2.1-7.4 4c-3.9-1.1-7.9-1.6-12.1-1.6-4.2 0-8.2.5-12 1.6-1.7-1.2-3.4-2.1-4.9-2.9s-2.8-1.3-3.7-1.6-1.8-.4-2.6-.5-1.3-.1-1.5 0-.4.1-.5.1c-1.8 4.6-2 8.9-.5 12.7-3.3 3.5-4.9 7.8-4.9 12.9 0 2.6.2 5 .7 7.2s1.1 4 1.9 5.6c.8 1.5 1.8 2.9 2.9 4.2s2.4 2.2 3.6 3 2.7 1.4 4.2 2c1.6.6 3.1 1 4.5 1.3s3 .5 4.7.7c-2.7 1.8-4 4.7-4 8.7v7.6c-1.5-.4-2.9-1-4.4-1.6-5-2.1-9.5-5.1-13.4-9s-6.9-8.4-9-13.3C9.1 61.2 8 55.7 8 50s1.1-11.2 3.3-16.3c2.1-5 5.1-9.5 9-13.4s8.4-6.9 13.3-9C38.8 9.1 44.3 8 50 8s11.2 1.1 16.3 3.3c5 2.1 9.5 5.1 13.3 9s6.9 8.4 9 13.4C90.9 38.8 92 44.3 92 50s-1.1 11.2-3.3 16.3c-2.1 5-5.1 9.5-9 13.4z"/></svg>