<svg xmlns="http://www.w3.org/2000/svg" viewBox="0 0 100 100" enable-background="new 0 0 100 100"><g fill="#fff"><path d="M50 1.5C23.2 1.5 1.5 23.2 1.5 50S23.2 98.5 50 98.5 98.5 76.8 98.5 50 76.8 1.5 50 1.5zm0 89C27.6 90.5 9.5 72.4 9.5 50S27.6 9.5 50 9.5 90.5 27.7 90.5 50c0 22.4-18.1 40.5-40.5 40.5zM80 40.5v-.4c0-.1 0-.1-.1-.2 0 0 0-.1-.1-.1 0-.1-.1-.1-.1-.2 0 0 0-.1-.1-.1 0-.1-.1-.1-.1-.2l-.1-.1-.1-.1-.1-.1-.1-.1-.1-.1-27.6-18.4c-.9-.6-2-.6-2.9 0L21.2 38.7l-.1.1c-.1 0-.1.1-.1.1l-.1.1-.1.1-.1.1c0 .1-.1.1-.1.2l-.1.1c0 .1-.1.1-.1.2 0 0 0 .1-.1.1 0 .1 0 .1-.1.2V59.7c0 .1 0 .1.1.2 0 0 0 .1.1.1 0 .1.1.1.1.2 0 0 0 .1.1.1 0 .1.1.1.1.2l.1.1.1.1.1.1.1.1.1.1 27.4 18.3c.4.5.9.7 1.4.7.5 0 1-.1 1.4-.4l27.4-18.3.1-.1.1-.1.1-.1.1-.1.1-.1c0-.1.1-.1.1-.2 0 0 0-.1.1-.1 0-.1.1-.1.1-.2 0 0 0-.1.1-.1 0-.1 0-.1.1-.2V40.9c.2-.2.2-.3.2-.4zM52.6 27.4l20.2 13.5-9 6-11.2-7.5v-12zm-5.2 0v12l-11.2 7.5-9-6 20.2-13.5zM25.2 45.7l6.4 4.3-6.4 4.3v-8.6zm22.2 26.9L27.2 59.1l9-6 11.2 7.5v12zM50 56.1L40.9 50l9.1-6.1 9.1 6.1-9.1 6.1zm2.6 16.5v-12l11.2-7.5 9 6-20.2 13.5zm22.2-18.3L68.4 50l6.4-4.3v8.6z"/></g></svg>